<mxfile host="app.diagrams.net" modified="2024-07-02T14:21:34.635Z" agent="Mozilla/5.0 (Macintosh; Intel Mac OS X 10_15_7) AppleWebKit/537.36 (KHTML, like Gecko) Chrome/126.0.0.0 Safari/537.36" version="24.6.4" etag="JfWW4gY4kGKUP7uFwZHe" type="github">
  <diagram name="Page-1" id="INEW_ATdlqAiY9G6yCFA">
    <mxGraphModel>
      <root>
        <mxCell id="0" />
        <mxCell id="1" parent="0" />
      </root>
    </mxGraphModel>
  </diagram>
</mxfile>
